<svg width="75" height="89" viewBox="0 0 75 89" fill="none" xmlns="http://www.w3.org/2000/svg">
<path d="M74.447 66.491V89H5.444V71.165L36.563 42.383C39.269 39.841 41.073 37.668 41.975 35.864C42.877 34.06 43.328 32.297 43.328 30.575C43.328 28.443 42.59 26.803 41.114 25.655C39.72 24.425 37.67 23.81 34.964 23.81C32.34 23.81 29.88 24.507 27.584 25.901C25.288 27.295 23.525 29.263 22.295 31.805L0.401 20.858C3.681 14.708 8.478 9.87 14.792 6.34399C21.106 2.736 28.732 0.931997 37.67 0.931997C44.476 0.931997 50.503 2.039 55.751 4.253C60.999 6.46699 65.099 9.62399 68.051 13.724C71.003 17.824 72.479 22.539 72.479 27.869C72.479 32.625 71.454 37.094 69.404 41.276C67.436 45.376 63.541 50.05 57.719 55.298L45.419 66.491H74.447Z" fill="url(#paint0_linear)"/>
<defs>
<linearGradient id="paint0_linear" x1="2" y1="123" x2="106.246" y2="-48.6747" gradientUnits="userSpaceOnUse">
<stop offset="0.136836" stop-color="#FF9F00"/>
<stop offset="0.50912" stop-color="#FF8089"/>
</linearGradient>
</defs>
</svg>
