<svg width="74" height="89" viewBox="0 0 74 89" fill="none" xmlns="http://www.w3.org/2000/svg">
<path d="M52.906 34.971C59.548 36.611 64.632 39.604 68.158 43.95C71.766 48.214 73.57 53.38 73.57 59.448C73.57 64.614 72.135 69.452 69.265 73.962C66.477 78.39 62.131 81.998 56.227 84.786C50.323 87.574 42.984 88.968 34.21 88.968C28.142 88.968 22.074 88.312 16.006 87C10.02 85.688 4.772 83.761 0.262 81.219L10.102 59.817C13.628 61.867 17.4 63.425 21.418 64.491C25.518 65.557 29.454 66.09 33.226 66.09C36.588 66.09 39.294 65.516 41.344 64.368C43.394 63.22 44.419 61.58 44.419 59.448C44.419 55.512 41.016 53.544 34.21 53.544H22.771V35.709L35.44 22.794H4.69V0.899994H68.896V18.735L52.906 34.971Z" fill="url(#paint0_linear)"/>
<defs>
<linearGradient id="paint0_linear" x1="1" y1="121" x2="103.963" y2="-51.1602" gradientUnits="userSpaceOnUse">
<stop stop-color="#E84A69"/>
<stop offset="1" stop-color="#02C7D4"/>
</linearGradient>
</defs>
</svg>
