<svg width="74" height="89" viewBox="0 0 74 89" fill="none" xmlns="http://www.w3.org/2000/svg">
<path d="M38.745 31.281C50.799 31.281 59.655 33.823 65.313 38.907C71.053 43.909 73.923 50.51 73.923 58.71C73.923 64.122 72.488 69.124 69.618 73.716C66.83 78.226 62.484 81.916 56.58 84.786C50.676 87.574 43.337 88.968 34.563 88.968C28.495 88.968 22.427 88.312 16.359 87C10.373 85.688 5.125 83.761 0.615 81.219L10.455 59.817C14.063 61.867 17.835 63.425 21.771 64.491C25.789 65.557 29.684 66.09 33.456 66.09C36.818 66.09 39.524 65.516 41.574 64.368C43.706 63.138 44.772 61.457 44.772 59.325C44.772 57.275 43.829 55.758 41.943 54.774C40.057 53.708 36.654 53.175 31.734 53.175H6.765L11.07 0.899994H68.265V22.794H34.932L34.317 31.281H38.745Z" fill="url(#paint0_linear)"/>
<defs>
<linearGradient id="paint0_linear" x1="20.5" y1="87" x2="105.28" y2="-47.5843" gradientUnits="userSpaceOnUse">
<stop stop-color="#FF8089"/>
<stop offset="0.731785" stop-color="#79EA99"/>
</linearGradient>
</defs>
</svg>
