<svg width="77" height="91" viewBox="0 0 77 91" fill="none" xmlns="http://www.w3.org/2000/svg">
<path d="M47.307 33.281C52.555 33.281 57.434 34.429 61.944 36.725C66.454 39.021 70.062 42.26 72.768 46.442C75.474 50.624 76.827 55.421 76.827 60.833C76.827 66.819 75.269 72.108 72.153 76.7C69.119 81.292 64.937 84.818 59.607 87.278C54.277 89.738 48.373 90.968 41.895 90.968C33.613 90.968 26.356 89.369 20.124 86.171C13.974 82.973 9.177 78.217 5.733 71.903C2.289 65.589 0.567 57.84 0.567 48.656C0.567 38.816 2.535 30.288 6.471 23.072C10.489 15.856 16.065 10.362 23.199 6.59C30.415 2.818 38.779 0.931997 48.291 0.931997C53.457 0.931997 58.377 1.547 63.051 2.777C67.725 3.925 71.702 5.565 74.982 7.697L64.527 27.992C60.263 24.958 55.056 23.441 48.906 23.441C43.904 23.441 39.763 24.712 36.483 27.254C33.285 29.714 31.194 33.322 30.21 38.078C34.72 34.88 40.419 33.281 47.307 33.281ZM39.927 70.919C42.551 70.919 44.683 70.14 46.323 68.582C47.963 67.024 48.783 64.892 48.783 62.186C48.783 59.48 47.963 57.348 46.323 55.79C44.683 54.15 42.551 53.33 39.927 53.33C37.303 53.33 35.171 54.15 33.531 55.79C31.891 57.348 31.071 59.48 31.071 62.186C31.071 64.892 31.891 67.024 33.531 68.582C35.171 70.14 37.303 70.919 39.927 70.919Z" fill="url(#paint0_linear)"/>
<defs>
<linearGradient id="paint0_linear" x1="17.5" y1="89" x2="102.28" y2="-45.5843" gradientUnits="userSpaceOnUse">
<stop stop-color="#FF8089"/>
<stop offset="0.731785" stop-color="#79EA99"/>
</linearGradient>
</defs>
</svg>
